<?xml version="1.0" standalone="no"?>
<!DOCTYPE svg PUBLIC "-//W3C//DTD SVG 20010904//EN"
 "http://www.w3.org/TR/2001/REC-SVG-20010904/DTD/svg10.dtd">
<svg version="1.0" xmlns="http://www.w3.org/2000/svg"
 width="512.000000pt" height="512.000000pt" viewBox="0 0 512.000000 512.000000"
 preserveAspectRatio="xMidYMid meet">

<g transform="translate(0.000000,512.000000) scale(0.100000,-0.100000)"
fill="#000000" stroke="none">
<path d="M3735 4794 c-148 -24 -287 -76 -402 -150 -39 -25 -604 -583 -1686
-1663 -1307 -1306 -1630 -1633 -1639 -1663 -21 -69 9 -140 75 -176 30 -16 104
-17 987 -20 l955 -2 242 -243 c134 -133 243 -245 243 -249 0 -5 -32 -8 -70 -8
-85 0 -129 -17 -160 -60 -54 -75 -28 -180 55 -220 40 -19 62 -20 551 -20 476
0 512 1 544 19 107 56 107 210 0 263 -30 16 -66 18 -260 18 l-225 0 -250 250
-250 250 280 0 c465 0 646 20 874 96 602 201 1053 722 1172 1355 21 107 22
151 26 718 5 644 1 719 -45 851 l-20 55 188 190 c160 162 189 196 195 229 22
113 -80 209 -187 176 -34 -10 -74 -44 -200 -168 l-158 -155 -68 65 c-119 115
-266 197 -431 239 -75 20 -272 33 -336 23z m319 -332 c198 -68 340 -212 413
-417 l28 -80 0 -620 c0 -685 -1 -699 -66 -902 -76 -236 -182 -408 -363 -589
-171 -169 -351 -283 -563 -353 -207 -69 -364 -83 -913 -79 l-395 3 85 59 c129
90 215 163 326 277 291 300 479 669 556 1089 19 102 22 169 28 595 8 534 7
533 79 680 95 192 270 330 464 365 90 16 229 4 321 -28z m-1167 -1117 c-5
-377 -9 -418 -52 -585 -89 -342 -292 -670 -556 -897 -303 -261 -657 -405
-1061 -433 -168 -11 -698 -13 -698 -3 0 5 532 540 1183 1191 l1182 1182 3 -42
c2 -24 1 -209 -1 -413z"/>
<path d="M3975 4140 c-78 -17 -121 -79 -112 -163 4 -43 10 -56 45 -89 37 -34
47 -38 93 -38 89 0 152 60 152 144 0 97 -84 166 -178 146z"/>
</g>
</svg>
