<?xml version="1.0" standalone="no"?>
<!DOCTYPE svg PUBLIC "-//W3C//DTD SVG 20010904//EN"
 "http://www.w3.org/TR/2001/REC-SVG-20010904/DTD/svg10.dtd">
<svg version="1.0" xmlns="http://www.w3.org/2000/svg"
 width="512.000000pt" height="512.000000pt" viewBox="0 0 512.000000 512.000000"
 preserveAspectRatio="xMidYMid meet">

<g transform="translate(0.000000,512.000000) scale(0.100000,-0.100000)"
fill="#000000" stroke="none">
<path d="M3955 4764 c-90 -19 -215 -79 -287 -137 -110 -91 -214 -258 -264
-426 -69 -231 -128 -339 -286 -526 -138 -164 -297 -301 -671 -580 -532 -396
-1407 -1240 -1624 -1563 -19 -30 -42 -72 -51 -93 -14 -36 -14 -41 3 -59 20
-22 59 -20 124 6 19 8 36 12 38 10 2 -2 -105 -102 -239 -223 -433 -392 -674
-646 -693 -732 -8 -40 6 -65 51 -86 46 -22 77 -17 192 29 65 26 105 36 145 36
70 0 100 16 513 266 493 299 700 420 841 491 l133 67 87 -21 c226 -55 494 -91
759 -100 l181 -6 113 -99 c62 -54 155 -131 207 -170 l95 -72 -38 -13 c-51 -18
-74 -41 -74 -73 0 -59 38 -63 166 -19 71 25 109 32 184 34 52 1 124 10 161 20
70 18 72 17 202 -39 33 -14 38 -15 43 -2 3 9 -4 29 -16 46 l-21 30 44 0 c24 0
78 9 120 20 75 19 78 19 130 1 30 -11 68 -26 86 -35 55 -29 65 -7 25 54 -53
79 -132 106 -262 88 -126 -17 -171 -4 -290 87 -53 40 -137 110 -185 156 l-88
82 88 36 c267 110 514 346 639 611 87 183 125 356 149 675 14 193 64 610 101
850 30 192 80 292 199 394 69 60 222 138 342 176 45 14 85 30 88 34 3 5 -46
34 -107 65 -62 30 -140 77 -173 103 -54 44 -67 62 -125 179 -76 152 -117 210
-205 292 -139 130 -339 180 -550 136z m-538 -3691 c55 -49 141 -119 191 -158
50 -38 91 -73 92 -77 0 -11 -105 -21 -141 -13 -76 16 -177 86 -338 233 l-85
77 69 11 c39 7 79 12 91 13 12 1 59 -33 121 -86z"/>
</g>
</svg>
